<svg width="30" height="18" viewBox="0 0 30 18" fill="none" xmlns="http://www.w3.org/2000/svg">
<path d="M20.9189 9L2 9" stroke="white" stroke-width="2.5" stroke-linecap="round" stroke-linejoin="round"/>
<path d="M29.8359 9.39013L21.8725 17.3377C21.7651 17.4473 21.6231 17.5 21.4836 17.5C21.3408 17.5 21.1996 17.4473 21.0931 17.3377L21.0824 17.3286C20.9775 17.2298 20.9189 17.0872 20.9189 16.9389V13.083C20.9189 12.933 21.6868 13.9003 21.7924 13.7949L27.0337 9L21.8725 4.20513C21.7676 4.10379 20.9189 5.067 20.9189 4.91952V1.06192C20.9189 0.916905 20.9767 0.777662 21.0824 0.671376L21.0931 0.661489C21.1938 0.558499 21.3342 0.5 21.4836 0.5C21.6264 0.5 21.7693 0.558499 21.8725 0.661489L29.8359 8.61152C30.0547 8.82492 30.0547 9.17756 29.8359 9.39013Z" fill="white"/>
</svg>
