<svg width="30" height="18" viewBox="0 0 30 18" fill="none" xmlns="http://www.w3.org/2000/svg">
<path d="M9.58108 9L28.5 9" stroke="black" stroke-width="2.5" stroke-linecap="round" stroke-linejoin="round"/>
<path d="M0.664082 9.39013L8.62755 17.3377C8.73487 17.4473 8.87687 17.5 9.01639 17.5C9.15921 17.5 9.30039 17.4473 9.40689 17.3377L9.41762 17.3286C9.52247 17.2298 9.58108 17.0872 9.58108 16.9389V13.083C9.58108 12.933 8.81323 13.9003 8.70756 13.7949L3.46632 9L8.62755 4.20513C8.73239 4.10379 9.58108 5.067 9.58108 4.91952V1.06192C9.58108 0.916905 9.52329 0.777662 9.41762 0.671376L9.40689 0.661489C9.30617 0.558499 9.16582 0.5 9.01639 0.5C8.87357 0.5 8.73074 0.558499 8.62755 0.661489L0.664082 8.61152C0.445306 8.82492 0.445306 9.17756 0.664082 9.39013Z" fill="black"/>
</svg>
