<svg width="14" height="13" viewBox="0 0 14 13" fill="none" xmlns="http://www.w3.org/2000/svg">
<path d="M1.99887 0.317246L7 4.96127L12.0011 0.317246C12.4182 -0.0700627 13.0792 -0.106134 13.5729 0.25205L13.6583 0.324306C14.1139 0.747301 14.1139 1.43311 13.6583 1.85611L8.65711 6.5L13.6583 11.1439C14.0754 11.5312 14.1143 12.1449 13.7286 12.6034L13.6508 12.6828C13.1952 13.1057 12.4566 13.1058 12.0011 12.6827L7 8.03873L1.99887 12.6828C1.58177 13.0701 0.920842 13.1061 0.427101 12.7479L0.341652 12.6757C-0.113881 12.2527 -0.113886 11.5669 0.341652 11.1439L5.34289 6.5L0.341652 1.85611C-0.0754506 1.4688 -0.114296 0.855063 0.271441 0.39659L0.349235 0.317246C0.804768 -0.105749 1.54334 -0.105749 1.99887 0.317246ZM1.1834 12.4583C1.18029 12.4583 1.17718 12.4583 1.17407 12.4583L1.1834 12.4583ZM1.26084 12.4523L1.23527 12.4554C1.24375 12.4545 1.25231 12.4535 1.26084 12.4523ZM1.08809 12.4524L1.09848 12.4538C1.09496 12.4534 1.09161 12.4529 1.08809 12.4524ZM1.01478 12.4378L1.02389 12.4402C1.02075 12.4394 1.01791 12.4387 1.01478 12.4378ZM1.33489 12.4374L1.30345 12.4449C1.31396 12.4427 1.32446 12.4402 1.33489 12.4374ZM1.4009 12.4158L1.37666 12.4248C1.38474 12.422 1.39283 12.419 1.4009 12.4158ZM0.947131 12.4158C0.948522 12.4163 0.950003 12.4169 0.947131 12.4158V12.4158ZM0.8787 12.3839L0.816678 12.3448C0.842582 12.3635 0.869765 12.3799 0.897962 12.394L0.8787 12.3839ZM1.46915 12.384L1.45039 12.3938C1.45655 12.3908 1.46287 12.3875 1.46915 12.384ZM13.3473 12.1662L13.3365 12.1841L13.2944 12.2417C13.3145 12.2176 13.3322 12.1923 13.3473 12.1662ZM13.3796 12.1001L13.3709 12.1205C13.374 12.1137 13.3769 12.1069 13.3796 12.1001ZM13.402 12.031L13.3946 12.0577C13.3972 12.049 13.3997 12.04 13.402 12.031ZM13.4134 11.967L13.4103 11.9896C13.4115 11.9822 13.4126 11.9746 13.4134 11.967ZM12.8259 1.08314L7 6.49309L1.17407 1.08314L1.16645 1.09021L6.99256 6.5L1.16645 11.9098L1.17407 11.9169L7 6.50691L12.8259 11.9169L12.8335 11.9098L7.00744 6.5L12.8335 1.09021L12.8259 1.08314ZM13.4166 11.9011L13.4166 11.9168C13.4167 11.9116 13.4167 11.9064 13.4166 11.9011ZM13.4102 11.8292L13.4135 11.853C13.4126 11.8451 13.4115 11.8372 13.4102 11.8292ZM13.3942 11.7604L13.4022 11.7896C13.3998 11.7799 13.3972 11.7701 13.3942 11.7604ZM13.3709 11.6991L13.3805 11.7217C13.3775 11.7142 13.3743 11.7066 13.3709 11.6991ZM13.3367 11.6358L13.3472 11.6532C13.3439 11.6475 13.3404 11.6416 13.3367 11.6358ZM0.652794 1.34679L0.661588 1.36144C0.658519 1.35652 0.655682 1.35177 0.652794 1.34679ZM0.619504 1.27831L0.627337 1.29697C0.624576 1.29076 0.622005 1.2846 0.619504 1.27831ZM0.597786 1.21036L0.602913 1.22964C0.601079 1.22322 0.599362 1.21683 0.597786 1.21036ZM0.586286 1.14488L0.588208 1.1604C0.587481 1.15521 0.586851 1.15009 0.586286 1.14488ZM0.58358 1.07449L0.583331 1.09021C0.583331 1.08493 0.583415 1.07976 0.58358 1.07449ZM0.589668 1.01036L0.588208 1.02001C0.588667 1.01674 0.589145 1.01362 0.589668 1.01036ZM0.605405 0.94231L0.602913 0.950772C0.603747 0.947852 0.604516 0.94522 0.605405 0.94231ZM0.629117 0.879478C0.627912 0.882146 0.62853 0.88077 0.629117 0.879478V0.879478ZM0.66351 0.815944L0.70563 0.758334C0.685488 0.782387 0.667816 0.807656 0.652651 0.833838L0.66351 0.815944ZM1.45014 0.60604L1.46944 0.616109L1.53146 0.655217C1.50556 0.636515 1.47834 0.620121 1.45014 0.60604ZM12.5496 0.606155L12.5338 0.614338C12.5391 0.611488 12.5442 0.608837 12.5496 0.606155ZM0.897748 0.606155L0.881976 0.614338C0.887273 0.611488 0.892377 0.608837 0.897748 0.606155ZM13.102 0.60604L13.1213 0.616109L13.1833 0.655217C13.1574 0.636515 13.1302 0.620121 13.102 0.60604ZM0.969169 0.576056L0.951403 0.582544C0.957284 0.580291 0.963228 0.578122 0.969169 0.576056ZM1.37655 0.575215L1.40101 0.584197C1.39285 0.581003 1.38473 0.578021 1.37655 0.575215ZM12.6233 0.57525L12.6033 0.582544C12.61 0.57998 12.6166 0.577572 12.6233 0.57525ZM13.0309 0.576066L13.0529 0.584197C13.0455 0.58132 13.0382 0.578623 13.0309 0.576066ZM1.04372 0.555291L1.02389 0.559835C1.03042 0.558226 1.03715 0.556686 1.04372 0.555291ZM1.30342 0.555085L1.335 0.562587C1.32449 0.559796 1.31397 0.557304 1.30342 0.555085ZM12.6965 0.555093L12.6758 0.559835C12.6827 0.558132 12.6896 0.556557 12.6965 0.555093ZM12.9565 0.555328L12.9852 0.562153C12.9759 0.559698 12.9662 0.557396 12.9565 0.555328ZM1.11497 0.544435L1.09848 0.546208C1.10393 0.545551 1.10951 0.54495 1.11497 0.544435ZM1.23285 0.544408L1.26077 0.547652C1.25151 0.546366 1.2422 0.545282 1.23285 0.544408ZM12.7671 0.544416L12.7503 0.546208C12.7559 0.545532 12.7615 0.544941 12.7671 0.544416ZM12.8852 0.544449L12.9119 0.547551C12.9031 0.54634 12.8942 0.545297 12.8852 0.544449ZM12.809 0.541891L12.8429 0.541896C12.8316 0.541591 12.8203 0.541589 12.809 0.541891ZM1.15705 0.541896L1.19098 0.541891C1.17967 0.541589 1.16836 0.541591 1.15705 0.541896Z" fill="#727374"/>
</svg>
