<svg width="27" height="28" viewBox="0 0 27 28" fill="none" xmlns="http://www.w3.org/2000/svg">
<path fill-rule="evenodd" clip-rule="evenodd" d="M8.88928 11.5H3.825C3.08191 11.4943 2.3668 11.7643 1.83702 12.2506C1.30721 12.7369 1.00612 13.3996 1 14.0931V23.9073C1.01375 25.3508 2.27828 26.5109 3.825 26.4987H8.88928C9.63232 26.5046 10.3475 26.2346 10.8773 25.7483C11.4071 25.262 11.7082 24.5992 11.7143 23.9056V14.0931C11.7082 13.3996 11.4071 12.7369 10.8773 12.2506C10.3475 11.7643 9.63232 11.4943 8.88928 11.5Z" stroke="black" stroke-width="1.5" stroke-linecap="round" stroke-linejoin="round"/>
<path fill-rule="evenodd" clip-rule="evenodd" d="M8.88928 1.50101H3.825C2.30939 1.46178 1.0457 2.57479 1 3.98914V5.679C1.0457 7.09337 2.30939 8.20638 3.825 8.16713H8.88928C10.4048 8.20638 11.6686 7.09337 11.7143 5.679V3.98914C11.6686 2.57479 10.4048 1.46178 8.88928 1.50101Z" stroke="black" stroke-width="1.5" stroke-linecap="round" stroke-linejoin="round"/>
<path fill-rule="evenodd" clip-rule="evenodd" d="M18.1106 16.5002H23.1731C23.9165 16.5063 24.6321 16.2365 25.1622 15.7502C25.6924 15.2638 25.9939 14.6008 25.9999 13.907V4.09443C25.9939 3.40096 25.6928 2.73814 25.163 2.25183C24.6331 1.76552 23.918 1.49555 23.1749 1.50131H18.1106C17.3676 1.49555 16.6524 1.76552 16.1226 2.25183C15.5928 2.73814 15.2917 3.40096 15.2856 4.09443V13.907C15.2917 14.6005 15.5928 15.2633 16.1226 15.7495C16.6524 16.2358 17.3676 16.5058 18.1106 16.5002Z" stroke="black" stroke-width="1.5" stroke-linecap="round" stroke-linejoin="round"/>
<path fill-rule="evenodd" clip-rule="evenodd" d="M18.1106 26.4989H23.1731C24.6894 26.5391 25.9542 25.4258 25.9999 24.0108V22.3209C25.9542 20.9065 24.6905 19.7936 23.1749 19.8328H18.1106C16.5951 19.7936 15.3314 20.9065 15.2856 22.3209V24.0091C15.3303 25.4242 16.5944 26.5381 18.1106 26.4989Z" stroke="black" stroke-width="1.5" stroke-linecap="round" stroke-linejoin="round"/>
</svg>
