<svg width="16" height="16" viewBox="0 0 16 16" fill="none" xmlns="http://www.w3.org/2000/svg">
<path d="M10.8175 2.961L13.039 5.18249M1 15.1348L1.03727 14.8738C1.16915 13.9507 1.23509 13.4892 1.38508 13.0582C1.51818 12.6758 1.69999 12.3121 1.92605 11.9763C2.1808 11.5977 2.5105 11.268 3.1699 10.6086L12.3184 1.46009C12.9319 0.846638 13.9265 0.846638 14.5399 1.46009C15.1534 2.07354 15.1534 3.06813 14.5399 3.68158L5.22353 12.998C4.62532 13.5962 4.32621 13.8953 3.98552 14.1331C3.68312 14.3442 3.35698 14.5191 3.01379 14.6542C2.62715 14.8065 2.21249 14.8901 1.38323 15.0574L1 15.1348Z" stroke="#727374" stroke-width="1.5" stroke-linecap="round" stroke-linejoin="round"/>
</svg>
