<svg width="25" height="26" viewBox="0 0 25 26" fill="none" xmlns="http://www.w3.org/2000/svg">
<g clip-path="url(#clip0_167_1101)">
<path d="M6.01576 18.2375L2.90356 22.6821C2.80796 22.8186 2.65546 22.8917 2.5005 22.8917C2.40312 22.8917 2.30475 22.8629 2.21898 22.8028C1.99662 22.6471 1.94255 22.3406 2.09831 22.1182L5.2105 17.6736C5.3662 17.4513 5.67279 17.3972 5.89508 17.5529C6.11744 17.7086 6.17151 18.0151 6.01576 18.2375ZM7.75756 18.857C7.53514 18.7013 7.22873 18.7553 7.07298 18.9776L3.96072 23.4223C3.80497 23.6447 3.85904 23.9512 4.08139 24.1069C4.16716 24.167 4.26553 24.1958 4.36292 24.1958C4.51781 24.1958 4.67037 24.1228 4.76597 23.9862L7.87823 19.5415C8.03399 19.3191 7.97992 19.0127 7.75756 18.857ZM21.2155 18.3077C21.0598 18.0853 20.7532 18.0313 20.5309 18.187C20.3085 18.3427 20.2545 18.6492 20.4102 18.8716L21.6646 20.663C21.8118 20.8731 21.868 21.1294 21.8229 21.3847C21.7779 21.64 21.6373 21.8616 21.4272 22.0088C21.2048 22.1645 21.1508 22.471 21.3065 22.6934C21.4021 22.83 21.5546 22.903 21.7096 22.903C21.8069 22.903 21.9053 22.8741 21.9911 22.8141C22.4163 22.5164 22.7004 22.0693 22.7911 21.5554C22.8818 21.0415 22.7677 20.5243 22.4699 20.0991L21.2155 18.3077ZM24.7927 22.0217C24.612 23.0464 24.0462 23.9376 23.1996 24.5312C23.1988 24.5318 23.1981 24.5323 23.1974 24.5328C21.4406 25.7627 19.0109 25.3343 17.7809 23.5777L14.8579 19.4031C14.7831 19.2963 14.7538 19.1642 14.7765 19.0358C14.7991 18.9075 14.8719 18.7933 14.9786 18.7185L16.2737 17.8118L15.6183 16.8759C15.3409 16.4797 15.2345 15.9977 15.3189 15.5188C15.374 15.2066 15.5056 14.9209 15.7004 14.6829L12.8043 10.5469L9.90814 14.6831C10.4105 15.2971 10.4674 16.1948 9.99053 16.8759L9.33519 17.8117L9.4598 17.8989C10.3271 18.5064 10.5387 19.7062 9.93142 20.5734L6.62851 25.2903C6.53291 25.4269 6.38041 25.5 6.22546 25.5C6.12807 25.5 6.02976 25.4711 5.94393 25.4111C5.72157 25.2554 5.66751 24.9489 5.8232 24.7265L9.12611 20.0096C9.42244 19.5862 9.31922 19.0007 8.89589 18.7042L8.36866 18.3351C8.26187 18.2603 8.18913 18.1462 8.16652 18.0178C8.14384 17.8894 8.17309 17.7573 8.24793 17.6504L9.18522 16.3119C9.44849 15.9357 9.35713 15.4156 8.9816 15.1517C8.98117 15.1515 8.9808 15.1512 8.98037 15.1509C8.98006 15.1507 8.97969 15.1505 8.97933 15.1502C8.79844 15.0239 8.57756 14.9758 8.35778 15.0145C8.13739 15.0534 7.94625 15.1745 7.81949 15.3555L7.16404 16.2915L7.2436 16.3471C7.46596 16.5028 7.51997 16.8094 7.36427 17.0317C7.2087 17.2541 6.90211 17.3082 6.67969 17.1524L6.19848 16.8155C6.19818 16.8153 6.19787 16.815 6.1975 16.8148L5.64901 16.4308C5.44533 16.2881 5.19668 16.2336 4.94901 16.2772C4.7014 16.3208 4.48648 16.4571 4.34381 16.6609L1.04102 21.3778C0.885266 21.6002 0.578919 21.6542 0.356378 21.4985C0.134021 21.3428 0.0799524 21.0364 0.235645 20.8139L3.53843 16.097C3.83163 15.6782 4.27198 15.3983 4.77826 15.3091C5.28479 15.2198 5.79401 15.3322 6.21286 15.6255L6.35872 15.7276L7.01412 14.7916C7.2914 14.3955 7.70792 14.1308 8.18698 14.0463C8.49928 13.9912 8.81263 14.0173 9.10282 14.1188L12.2041 9.68971L8.44085 4.31524L7.68359 4.84548C7.50921 4.9675 7.27617 4.96357 7.10616 4.83559L5.57977 3.68725C5.454 3.59263 5.38113 3.44345 5.38383 3.28609C5.38653 3.12874 5.46444 2.98214 5.59335 2.89182L8.88268 0.588689C9.01158 0.49837 9.17588 0.475268 9.32481 0.526634C9.47362 0.577937 9.58889 0.69738 9.63478 0.847973L10.1918 2.67506C10.2538 2.87861 10.1778 3.09901 10.0036 3.22103L9.24617 3.75133L12.8042 8.83267L16.3622 3.75127L15.6049 3.22103C15.4306 3.09894 15.3547 2.87861 15.4167 2.675L15.9738 0.847911C16.0197 0.69738 16.135 0.577876 16.2838 0.526634C16.4326 0.475268 16.597 0.49837 16.7259 0.588689L20.0153 2.89182C20.1442 2.98208 20.2221 3.12868 20.2248 3.28609C20.2275 3.44351 20.1546 3.59263 20.0288 3.68725L18.5023 4.83559C18.3323 4.96357 18.0992 4.96744 17.9249 4.84542L17.1675 4.31506L13.4043 9.68959L16.5057 14.1188C17.2546 13.8567 18.1176 14.1105 18.5944 14.7916L18.5944 14.7915L19.2498 15.7274L20.5448 14.8208C20.7671 14.665 21.0736 14.7191 21.2294 14.9415L24.1524 19.1161C24.7461 19.9643 24.9735 20.9961 24.7927 22.0217ZM16.4612 2.62074L18.1965 3.83581L18.8968 3.30901L16.7168 1.78256L16.4612 2.62074ZM9.14749 2.62074L8.89202 1.78262L6.71201 3.30907L7.4122 3.83587L8.27631 3.2308C8.27754 3.22994 8.27865 3.22914 8.27981 3.22834C8.28104 3.22754 8.28215 3.22674 8.28338 3.22588L9.14749 2.62074ZM23.3472 19.6802L20.7061 15.9083L19.4112 16.815C19.4107 16.8153 19.4103 16.8156 19.4099 16.8159L18.929 17.1526C18.7067 17.3083 18.4002 17.2543 18.2445 17.0319C18.0887 16.8096 18.1428 16.503 18.3651 16.3473L18.4447 16.2917L17.7893 15.3558H17.7892C17.5257 14.9793 17.0048 14.8875 16.6282 15.1511C16.4471 15.2779 16.3259 15.4691 16.2871 15.6895C16.2482 15.9097 16.2967 16.1309 16.4236 16.3121L17.3609 17.6506C17.5166 17.873 17.4626 18.1795 17.2402 18.3352L15.9451 19.242L18.5863 23.0139C19.505 24.3261 21.3197 24.6464 22.6324 23.7284C22.6328 23.7281 22.6333 23.7277 22.6337 23.7274C23.2664 23.2844 23.6893 22.618 23.8246 21.851C23.9598 21.0839 23.7903 20.313 23.3472 19.6802Z" fill="black"/>
</g>
<defs>
<clipPath id="clip0_167_1101">
<rect width="25" height="25" fill="white" transform="translate(0 0.5)"/>
</clipPath>
</defs>
</svg>
