<svg width="20" height="18" viewBox="0 0 20 18" fill="none" xmlns="http://www.w3.org/2000/svg">
<path d="M1.51119 1.3999L18.4884 16.4299M7.96658 7.17279C7.47364 7.62366 7.17027 8.23788 7.17027 8.9149C7.17027 10.2984 8.43714 11.4199 9.9998 11.4199C10.7756 11.4199 11.4784 11.1435 11.9895 10.696M4.81232 4.44527C3.02094 5.49169 1.65647 7.06449 1 8.9149C2.20185 12.3026 5.77679 14.7599 9.99998 14.7599C11.8759 14.7599 13.6239 14.2751 15.0928 13.4393M9.05662 3.11114C9.36692 3.08387 9.68166 3.0699 9.99998 3.0699C14.2233 3.0699 17.7982 5.52723 19 8.9149C18.7352 9.66139 18.3551 10.3626 17.8784 11.0024" stroke="#727374" stroke-width="2" stroke-linecap="round" stroke-linejoin="round"/>
</svg>
