<svg width="25" height="26" viewBox="0 0 25 26" fill="none" xmlns="http://www.w3.org/2000/svg">
<g clip-path="url(#clip0_167_1109)">
<path d="M24.4898 10.8676C20.5125 10.8676 16.6889 12.0609 13.4321 14.3185C12.2472 15.1399 11.1669 16.0801 10.2042 17.1219V14.3026C12.2993 14.0496 13.9287 12.262 13.9287 10.0997C13.9287 7.76473 12.0291 5.86511 9.69406 5.86511C7.35905 5.86511 5.45943 7.76473 5.45943 10.0997C5.45943 12.262 7.08873 14.0496 9.1839 14.3026V18.3212C8.10617 19.6967 7.215 21.2171 6.53688 22.8508H4.74508V21.2961C6.8402 21.0432 8.46955 19.2555 8.46955 17.0933C8.46955 14.7583 6.56993 12.8587 4.23492 12.8587C1.89991 12.8587 0.000292969 14.7583 0.000292969 17.0933C0.000292969 19.2555 1.62959 21.0432 3.72476 21.2961V22.8508H0.51045C0.228711 22.8508 0.000244141 23.0793 0.000244141 23.361C0.000244141 23.6428 0.228663 23.8713 0.51045 23.8713H24.4898C24.7715 23.8713 25 23.6428 25 23.361V11.3778C25 11.096 24.7715 10.8676 24.4898 10.8676ZM3.55928 18.1204C3.36011 17.9212 3.03716 17.9212 2.8377 18.1204C2.63848 18.3196 2.63848 18.6427 2.8377 18.8419L3.72462 19.7289V20.2667C2.19395 20.0213 1.02061 18.692 1.02061 17.0933C1.02061 15.3209 2.46255 13.879 4.23487 13.879C6.00719 13.879 7.44914 15.3209 7.44914 17.0933C7.44914 18.6919 6.27579 20.0213 4.74508 20.2666V19.7289L6.21124 18.2626C6.41046 18.0634 6.41046 17.7404 6.21124 17.5411C6.01197 17.3419 5.68903 17.3419 5.48966 17.5412L4.23482 18.796L3.55928 18.1204ZM8.29684 11.8484L9.18376 12.7353V13.2731C7.65309 13.0278 6.47975 11.6985 6.47975 10.0997C6.47975 8.32742 7.9217 6.88548 9.69401 6.88548C11.4663 6.88548 12.9083 8.32742 12.9083 10.0997C12.9083 11.6984 11.7349 13.0278 10.2042 13.2731V12.7353L11.6704 11.2691C11.8696 11.0699 11.8696 10.7469 11.6704 10.5476C11.4711 10.3484 11.1482 10.3484 10.9488 10.5476L9.69396 11.8025L9.01843 11.1269C8.81921 10.9277 8.49626 10.9277 8.29684 11.1268C8.09762 11.3261 8.09762 11.6491 8.29684 11.8484ZM7.64645 22.8508C8.28005 21.4149 9.07897 20.0902 10.0159 18.895C10.0723 18.8491 10.1183 18.7911 10.1509 18.7253C12.6937 15.5589 16.2159 13.3278 20.1948 12.387C19.4042 12.9337 18.6164 13.6233 17.8432 14.4512C15.8498 16.5852 14.0812 19.484 12.7159 22.8508H7.64645V22.8508ZM13.8199 22.8508C16.1376 17.3275 19.5098 13.3406 22.7057 12.2128C21.8556 13.2287 20.9732 14.6526 20.3198 15.877C19.6506 17.1311 18.1387 20.2106 17.8892 22.8508H13.8199ZM23.9796 22.8508H18.9158C19.1058 21.1234 19.9438 18.7489 21.22 16.3574C22.2473 14.4324 23.2794 13.0182 23.9796 12.3293V22.8508Z" fill="black"/>
<path d="M24.6367 3.68901C24.3668 3.60786 24.0823 3.76059 24.001 4.03037C23.9961 4.04692 23.4883 5.7001 22.2525 6.97471C22.0564 7.177 22.0614 7.5 22.2637 7.69615C22.3628 7.79229 22.4909 7.84009 22.6188 7.84009C22.752 7.84009 22.8851 7.78819 22.9852 7.68506C24.3919 6.23403 24.9548 4.402 24.978 4.3247C25.0593 4.05488 24.9065 3.77031 24.6367 3.68901Z" fill="black"/>
<path d="M21.6925 8.14151C21.5609 7.89239 21.2523 7.79703 21.0031 7.92872C20.8228 8.02398 20.6356 8.10626 20.4466 8.1733C20.1811 8.26754 20.0422 8.55924 20.1365 8.82476C20.2106 9.03385 20.4073 9.16441 20.6172 9.16441C20.6738 9.16441 20.7315 9.15494 20.7879 9.13487C21.0231 9.05143 21.2559 8.94913 21.4797 8.83097C21.7289 8.69933 21.8242 8.39068 21.6925 8.14151Z" fill="black"/>
<path d="M18.9276 8.41061C17.2648 8.35953 15.8372 7.04649 14.3256 5.65631C12.528 4.00288 10.4905 2.12891 7.66392 2.12891C5.45761 2.12891 3.43256 3.28653 1.80795 5.47676C0.609557 7.09215 0.0512065 8.68878 0.028062 8.75592C-0.0638816 9.02228 0.077525 9.31276 0.343883 9.4047C0.399059 9.42374 0.455162 9.43278 0.510387 9.43278C0.721911 9.43278 0.919714 9.30006 0.992615 9.08883C1.01307 9.02946 3.09516 3.14932 7.66387 3.14932C10.0926 3.14932 11.8933 4.80557 13.6348 6.40733C15.2901 7.9298 16.8537 9.36788 18.8962 9.43053C18.9016 9.43068 18.9068 9.43078 18.9122 9.43078C19.1867 9.43078 19.4134 9.21251 19.4218 8.93624C19.4305 8.6546 19.2092 8.4193 18.9276 8.41061Z" fill="black"/>
</g>
<defs>
<clipPath id="clip0_167_1109">
<rect width="25" height="25" fill="white" transform="translate(0 0.5)"/>
</clipPath>
</defs>
</svg>
