<svg width="31" height="31" viewBox="0 0 31 31" fill="none" xmlns="http://www.w3.org/2000/svg">
<path d="M24.779 18.0065C24.4002 18.0065 24.037 18.1581 23.7691 18.4279C23.5013 18.6976 23.3508 19.0635 23.3508 19.445V19.9917L21.2371 17.8627C20.4908 17.1169 19.4821 16.6984 18.4308 16.6984C17.3794 16.6984 16.3707 17.1169 15.6244 17.8627L14.6247 18.8696L11.0828 15.3022C10.326 14.5766 9.32123 14.1719 8.27642 14.1719C7.23162 14.1719 6.22682 14.5766 5.47006 15.3022L3.35635 17.4311V9.37554C3.35635 8.99403 3.50682 8.62814 3.77466 8.35837C4.04249 8.08859 4.40576 7.93704 4.78453 7.93704H14.7818C15.1605 7.93704 15.5238 7.78548 15.7916 7.51571C16.0595 7.24594 16.2099 6.88005 16.2099 6.49854C16.2099 6.11702 16.0595 5.75114 15.7916 5.48137C15.5238 5.21159 15.1605 5.06004 14.7818 5.06004H4.78453C3.6482 5.06004 2.55842 5.51471 1.75491 6.32402C0.951405 7.13333 0.5 8.231 0.5 9.37554V26.6375C0.5 27.7821 0.951405 28.8798 1.75491 29.6891C2.55842 30.4984 3.6482 30.9531 4.78453 30.9531H21.9227C23.059 30.9531 24.1488 30.4984 24.9523 29.6891C25.7558 28.8798 26.2072 27.7821 26.2072 26.6375V19.445C26.2072 19.0635 26.0567 18.6976 25.7889 18.4279C25.5211 18.1581 25.1578 18.0065 24.779 18.0065ZM4.78453 28.076C4.40576 28.076 4.04249 27.9245 3.77466 27.6547C3.50682 27.385 3.35635 27.0191 3.35635 26.6375V21.5021L7.49807 17.3304C7.70788 17.1291 7.9866 17.0167 8.27642 17.0167C8.56625 17.0167 8.84496 17.1291 9.05478 17.3304L13.5821 21.8905L19.7233 28.076H4.78453ZM23.3508 26.6375C23.3488 26.9129 23.2586 27.1803 23.0938 27.4L16.6527 20.8835L17.6524 19.8766C17.7548 19.7713 17.877 19.6877 18.0119 19.6306C18.1468 19.5735 18.2916 19.5441 18.4379 19.5441C18.5842 19.5441 18.729 19.5735 18.8639 19.6306C18.9988 19.6877 19.121 19.7713 19.2234 19.8766L23.3508 24.0626V26.6375ZM30.0775 5.4772L25.793 1.1617C25.6572 1.03074 25.497 0.928081 25.3217 0.859616C24.974 0.71574 24.584 0.71574 24.2363 0.859616C24.061 0.928081 23.9008 1.03074 23.765 1.1617L19.4805 5.4772C19.3473 5.61133 19.2417 5.77055 19.1696 5.9458C19.0976 6.12104 19.0605 6.30886 19.0605 6.49854C19.0605 6.88161 19.2115 7.249 19.4805 7.51987C19.7494 7.79075 20.1142 7.94292 20.4945 7.94292C20.8748 7.94292 21.2396 7.79075 21.5085 7.51987L23.3508 5.64982V13.691C23.3508 14.0726 23.5013 14.4384 23.7691 14.7082C24.037 14.978 24.4002 15.1295 24.779 15.1295C25.1578 15.1295 25.5211 14.978 25.7889 14.7082C26.0567 14.4384 26.2072 14.0726 26.2072 13.691V5.64982L28.0495 7.51987C28.1823 7.6547 28.3403 7.76172 28.5143 7.83475C28.6883 7.90778 28.875 7.94538 29.0635 7.94538C29.2521 7.94538 29.4387 7.90778 29.6128 7.83475C29.7868 7.76172 29.9448 7.6547 30.0775 7.51987C30.2114 7.38615 30.3177 7.22705 30.3902 7.05175C30.4627 6.87646 30.5 6.68844 30.5 6.49854C30.5 6.30864 30.4627 6.12062 30.3902 5.94532C30.3177 5.77003 30.2114 5.61093 30.0775 5.4772Z" fill="#727374"/>
</svg>
