<svg width="25" height="26" viewBox="0 0 25 26" fill="none" xmlns="http://www.w3.org/2000/svg">
<path d="M12.5 0.5C13.0917 0.5 13.5714 0.9797 13.5714 1.57143C13.5714 2.16316 13.0917 2.64286 12.5 2.64286C6.77992 2.64286 2.14286 7.27991 2.14286 13C2.14286 18.7201 6.77992 23.3571 12.5 23.3571C13.0917 23.3571 13.5714 23.8369 13.5714 24.4286C13.5714 25.0203 13.0917 25.5 12.5 25.5C5.59645 25.5 0 19.9036 0 13C0 6.09644 5.59645 0.5 12.5 0.5Z" fill="#FF0004"/>
<path d="M18.8853 9.47186C18.4669 9.05345 18.4669 8.37505 18.8853 7.95663C19.3037 7.53822 19.982 7.53822 20.4004 7.95663L24.6861 12.2424C25.1046 12.6608 25.1046 13.3391 24.6861 13.7575L20.4004 18.0432C19.982 18.4617 19.3037 18.4617 18.8853 18.0432C18.4669 17.6248 18.4669 16.9465 18.8853 16.5281L21.3419 14.0714H9.64284C9.05111 14.0714 8.57141 13.5917 8.57141 13C8.57141 12.4082 9.05111 11.9285 9.64284 11.9285H21.3419L18.8853 9.47186Z" fill="#FF0004"/>
</svg>
