<svg width="83" height="94" viewBox="0 0 83 94" fill="none" xmlns="http://www.w3.org/2000/svg">
<path d="M82.481 2.86323L82.4042 2.9204C82.3195 2.51938 81.6247 1.34417 76.1155 3.79993C70.6317 6.25494 72.9368 6.23614 70.9454 8.44362C68.9619 10.6406 68.9959 9.61884 69.2329 7.774C69.4704 5.91111 70.352 4.47858 70.4875 3.75178C70.623 3.01596 69.8689 1.39157 67.6819 1.81215C65.4949 2.23273 67.9108 4.36272 68.1057 6.55214C68.3092 8.74006 66.5887 9.86712 66.0121 10.0868C65.4181 10.3065 63.9018 9.20803 63.3846 7.92749C62.8674 6.64694 63.3426 5.21366 63.9519 3.03552C64.5632 0.85663 63.2999 -0.920487 61.4946 0.522576L61.2744 1.42994C61.0542 2.34784 61.5627 3.43654 61.6214 5.75838C61.6895 8.08022 62.1553 9.98223 62.1473 11.4441C62.1219 12.906 59.63 13.3356 58.9773 12.7818C58.3166 12.2273 58.697 7.52647 58.3927 6.40843C58.0883 5.2904 58.0536 2.61494 56.8844 1.37276C55.7058 0.140363 55.7992 2.30872 56.0101 4.66818C56.221 7.02764 56.7642 8.48199 57.5364 10.135C58.3166 11.7879 56.7402 12.6765 56.0789 12.0648C55.4182 11.4531 54.977 11.0807 53.6376 9.73244C52.3075 8.37666 53.4854 8.01326 53.2479 5.35736C52.9943 2.6819 52.6205 2.93019 51.4927 2.42309C50.3661 1.91749 50.9 4.07681 51.0021 7.88009C51.1123 11.6924 51.6548 10.077 52.2141 11.7774C52.7733 13.4778 53.4261 13.6222 52.7734 13.4883C52.1127 13.3454 47.2474 8.36687 46.544 7.27743C45.8399 6.18874 44.3991 1.50668 44.9924 8.04185C45.5864 14.5778 57.435 18.9829 57.435 18.9829L79.2515 5.05114L57.5111 19.7571C57.5111 19.7571 58.5535 31.8441 65.3928 34.6053C72.2334 37.3763 67.6312 34.4812 66.6901 33.4783C65.7491 32.4746 61.9104 26.436 61.9698 25.7957C62.0285 25.1562 61.9698 25.7957 63.6309 26.8852C65.2833 27.9648 63.3766 27.8979 67.445 29.2838C71.5046 30.6787 73.6489 31.902 73.4627 30.717C73.2758 29.532 73.6495 29.2838 70.8599 28.1462C68.0636 27.0281 67.3095 27.9551 66.2837 26.3028C65.2413 24.6491 64.9783 24.1239 64.5285 23.3212C64.08 22.5281 65.5209 21.4191 67.0632 22.6809C68.7011 24.0707 70.5231 25.1605 72.4623 25.9101C74.9376 26.9032 77.2427 27.7256 76.2764 26.2547C75.31 24.7928 72.4456 23.8373 71.3438 23.197C70.2419 22.5274 65.0544 21.2664 64.6647 20.493C64.2836 19.7285 65.5209 17.6264 67.0972 18.123C68.6736 18.6007 70.5723 19.6706 73.0469 20.5118C75.5309 21.3717 76.5393 22.2031 77.5904 22.3084L78.6409 22.4228C80.8619 21.5628 79.2349 19.566 76.7002 19.3652C74.1748 19.174 72.4797 19.1071 71.2677 18.2087C70.0464 17.3014 69.335 15.5717 69.7588 15.1225C70.3889 14.5861 71.1313 14.2426 71.914 14.1253C72.6967 14.0079 73.493 14.1208 74.2255 14.4529C76.5139 15.3708 78.0476 18.2659 79.1841 16.4602C80.3187 14.6545 78.8024 13.4123 77.9715 13.2777C77.1493 13.1543 75.3354 13.4597 73.2678 13.0294C71.199 12.6095 70.0804 12.2943 73.073 11.2718C76.0655 10.2493 75.3274 12.3041 79.684 8.22393C84.7861 3.46513 82.4803 2.87301 82.4803 2.87301" fill="#139547"/>
<path d="M78.5729 60.9202C77.6158 60.3469 76.4706 60.1844 74.0213 59.1431C71.5807 58.0921 69.5807 57.518 68.0464 56.8303C66.5127 56.1329 66.0462 54.2497 66.6228 54.0691C67.1994 53.8885 72.1574 56.3435 73.3266 56.6678C74.4965 56.9838 77.3109 58.2064 78.6156 57.9965C79.9123 57.7956 77.6325 56.8303 75.1405 55.8748C72.6659 54.9193 71.1403 54.5942 69.4025 54.346C67.6566 54.0879 66.7242 52.626 67.3683 52.4635C68.0043 52.301 68.394 52.1776 69.8095 51.9188C71.2244 51.6517 71.6148 52.617 74.4118 53.6967C77.2087 54.7763 76.9545 54.4039 77.4884 53.8878C78.0223 53.3611 75.7512 52.7216 71.7503 51.0114C67.7414 49.2915 69.4451 50.4193 67.6566 49.9987C65.86 49.5774 65.7159 49.9506 65.86 49.5774C66.0042 49.1959 71.2251 48.2592 72.3603 48.2976C73.4955 48.336 78.4294 49.5495 71.5641 46.9027C64.6988 44.2558 60.0965 50.1417 60.0965 50.1417L74.7762 71.2113L59.7916 50.5148C59.7916 50.5148 56.7403 49.2727 53.4008 48.4699C52.9089 46.7785 51.7223 44.0933 50.4596 40.4239C48.5522 34.9105 48.2813 36.0955 47.2642 35.2739C47.4676 34.4648 47.6936 33.6781 47.9423 32.9137C51.3746 34.5388 56.3165 37.3091 57.435 38.2744C59.1135 39.7077 63.9353 47.0652 59.3084 35.7991C57.6553 31.7769 54.0194 29.2835 50.0272 27.726C51.6376 24.5721 53.7311 22.1261 56.4266 20.9411C56.4266 20.9411 55.6978 20.9892 55.0618 19.316C54.7315 18.4567 52.0447 20.4347 49.1289 27.3912C47.9365 26.9699 46.747 26.6288 45.5604 26.368C45.2801 25.891 44.7215 25.1642 43.7298 24.0657C38.7712 18.5523 36.0683 24.0657 36.0683 24.0657C36.0683 24.0657 35.8134 24.9257 36.0256 25.2018C35.0933 25.1838 34.542 25.2018 34.542 25.2018L10.0473 65.898L33.9741 23.8746C33.9741 23.8746 25.4984 2.97729 13.7425 2.97729C1.98737 2.97729 10.4884 4.82062 12.4545 5.93941C14.4299 7.03788 23.6084 15.0838 23.888 16.259C24.1596 17.4538 23.888 16.259 20.7947 15.533C17.7094 14.7881 20.5912 13.5264 13.7432 13.9756C6.89524 14.4247 3.00444 13.7845 3.97014 15.7715C4.9365 17.7503 4.51272 18.4853 9.30915 18.4853C14.1056 18.4853 14.7009 16.2688 17.1922 18.4853C19.6749 20.6928 20.3709 21.4384 21.4901 22.5467C22.6087 23.6549 21.1084 26.6742 18.0998 25.5276C14.9297 24.2361 11.5785 23.6014 8.20799 23.6542C3.95346 23.6542 0.0633054 23.846 2.33506 25.7857C4.60681 27.7253 9.41994 27.3431 11.4381 27.7155C13.4462 28.0789 21.8879 26.6073 22.905 27.7155C23.922 28.8238 23.278 33.4486 20.6592 33.7165C18.0318 33.9843 14.5908 33.4486 10.4203 33.7165C6.2499 33.9843 4.26711 33.2387 2.64005 33.8023L1.00364 34.3568C-1.80134 37.5002 1.76645 39.8988 5.6399 38.4173C9.52204 36.9464 12.0814 35.8367 14.3959 36.574C16.7264 37.3091 18.7772 39.8988 18.4048 41.007C17.8529 42.3471 16.9684 43.4781 15.8582 44.2632C14.7481 45.0484 13.4599 45.454 12.1495 45.431C8.20797 45.431 4.26711 41.3704 3.62309 45.431C2.97039 49.4924 5.92821 50.5999 7.2336 50.2372C8.53899 49.855 11.0644 48.0207 14.3872 47.2751C17.7094 46.5393 19.5394 46.3008 15.6753 50.2944C11.8105 54.2986 11.7344 50.0837 7.5813 60.5192C2.7248 72.7206 6.49616 72.1284 6.49616 72.1284L6.58091 71.9855C6.92795 72.625 8.64911 74.2404 15.421 65.8702C22.1929 57.4999 18.7692 59.2003 20.4643 53.811C22.1595 48.4413 22.6847 50.2952 23.4055 53.7824C24.1169 57.2795 23.617 60.4711 23.8373 61.8758C24.0193 62.633 24.4356 63.2918 25.0108 63.7333C25.586 64.1749 26.2823 64.3699 26.974 64.2834L31.6523 89.6814C31.6523 92.0702 36.6529 94.0001 42.8228 94.0001C48.9934 94.0001 54.0027 92.0702 54.0027 89.6814L58.7404 63.9779C59.6728 64.5896 60.5957 64.1886 60.6892 63.051C60.8086 61.5033 60.8253 60.4425 61.6815 60.0701C62.5291 59.6879 64.1989 60.0121 64.648 60.4899C65.0972 60.9677 66.2664 62.6214 65.4276 63.6725C64.58 64.7333 61.8083 64.4173 63.6056 65.9657C65.4028 67.5141 66.5721 67.1018 66.6736 66.6248C66.767 66.147 66.4279 64.8379 66.7837 63.701C67.148 62.5544 67.4197 61.9811 68.5042 64.3699C69.5886 66.7587 67.5551 65.363 71.6488 70.0075C75.7599 74.67 76.7343 74.4503 76.9291 74.2885L76.9799 74.3638C76.9799 74.3638 79.1922 75.4344 76.1409 69.778C73.5382 64.9432 73.5649 66.5006 71.2424 64.1404C68.92 61.7802 69.9877 62.2768 71.9452 63.2993C73.8939 64.3225 75.4035 65.5835 76.175 66.0131C76.9378 66.4525 78.6496 66.7008 78.2091 65.0388C77.7513 63.376 75.5223 64.0065 73.2172 63.1179C71.7016 62.5953 70.3871 61.511 69.4865 60.0407C69.2503 59.5539 70.4115 59.0476 71.7503 59.2959C73.0984 59.5441 74.6067 60.5373 76.9038 61.9713C79.2009 63.4046 81.235 63.2993 79.5399 61.4936L78.5729 60.9202ZM57.1895 55.3399C56.155 55.7123 55.3248 56.1043 54.5279 56.965C53.5669 56.5888 52.4962 56.2603 51.3159 55.9794C51.4965 55.8525 51.7083 55.6298 51.9512 55.3113C52.9683 54.0307 52.0359 53.1136 53.6296 53.2091C55.2227 53.2761 55.7232 53.343 56.494 53.4198C57.2655 53.495 58.3761 54.9193 57.1895 55.3399ZM52.9936 51.2319C51.9765 51.8037 51.9939 50.6104 50.7479 52.5974C49.7308 54.212 48.7985 55.063 49.0948 55.5595C48.3265 55.4321 47.5354 55.3303 46.7217 55.2541C46.3641 53.6757 45.8585 52.1448 45.2134 50.6871C45.6966 50.5434 46.2812 50.2756 46.6282 50.2282C47.1374 50.1326 49.0021 50.1703 50.7479 50.2756C51.3152 50.6292 51.9091 50.4953 52.8668 50.5337C53.0136 50.5402 53.1405 50.5241 53.2472 50.4855C53.6321 50.5432 53.8866 50.5974 54.0107 50.648C54.6294 50.973 54.0107 50.6488 52.9936 51.2319ZM48.5783 46.5588C48.7696 47.0303 48.9476 47.4441 49.1122 47.8003C47.5105 47.7529 46.1624 48.0207 45.493 48.8709L45.0098 49.521C45.2634 46.3384 45.6705 42.9075 46.3065 39.5549C47.9169 40.8731 46.9252 42.5268 48.5783 46.5588ZM43.7638 47.3902C42.5989 45.0707 41.1431 42.953 39.4412 41.1026C37.3477 38.704 39.187 35.9811 40.5177 36.5928C41.8485 37.2038 42.7134 37.5672 45.4423 39.0004C44.843 41.5034 44.2835 44.3004 43.7638 47.3902ZM46.6115 34.5667L46.442 34.3184C44.6281 31.6715 43.5603 31.901 44.6281 31.6715C44.9164 31.6038 45.9081 31.9777 47.2222 32.5699C47.0131 33.2069 46.8095 33.8725 46.6115 34.5667ZM37.4751 24.3524C39.4919 22.2502 42.5519 25.4035 42.9756 25.8526C40.8128 25.4976 38.6335 25.2838 36.4487 25.2123C36.8241 24.9846 37.1672 24.6947 37.4664 24.3524M35.788 37.4137C37.0847 37.9208 39.2116 46.6258 40.3061 48.4029C40.9502 49.454 41.7891 51.5847 42.8655 53.41L42.6707 55.0728C40.7887 55.0788 39.003 55.1997 37.3136 55.4354C36.7734 54.2888 36.2921 53.1081 35.8721 51.8992C34.4319 47.7912 32.652 44.714 31.8385 42.0957C31.0249 39.4774 34.5 36.8975 35.788 37.4137ZM26.8718 47.3135C27.6173 46.4919 30.5077 47.3707 32.0167 49.2817C33.2286 50.8391 33.5423 53.0466 33.7966 56.1231C31.3807 56.7348 29.4232 57.5947 28.1345 58.6074C27.1697 57.6275 26.3663 56.463 25.7613 55.1676C25.2484 53.8785 25.0804 52.4487 25.2776 51.0534C25.4749 49.6582 26.0289 48.3582 26.8718 47.3127M42.8222 67.7616C36.1951 67.7616 30.499 66.2328 27.923 64.0351C28.3069 63.8821 28.7051 63.6496 29.1175 63.3376C30.7526 62.0766 30.0839 60.8917 28.8887 59.4674C30.4379 58.4683 32.1303 57.7828 33.8893 57.442L33.9741 58.4547C34.3131 62.7929 37.2042 65.0674 39.0595 61.1881L38.8726 59.3914C38.7885 58.5788 38.4495 57.8054 37.9837 56.8108C39.3229 56.7029 40.8258 56.6553 42.4925 56.6678C42.2664 58.6812 42.0684 60.7961 41.8985 63.0126C41.8985 63.0126 42.018 64.7326 44.6454 63.5092C44.6454 63.5092 44.5266 60.7961 44.6281 56.7257C48.671 56.8882 51.5781 57.3946 53.6637 58.0537C53.0697 58.9137 52.8161 59.6397 53.9433 59.6683C54.6975 59.6969 55.2821 59.2959 55.7653 58.8557C57.427 59.6593 58.2479 60.538 58.647 61.1971C58.2232 61.6463 57.8842 61.9044 57.8328 62.3054L57.7487 62.9268C57.9071 63.1751 58.0681 63.3853 58.2319 63.5573C55.9601 66.0026 49.9257 67.7616 42.8222 67.7616ZM61.6475 57.4315C61.2238 58.226 60.2233 58.9611 59.4605 60.1844C59.3422 60.375 59.2236 60.5438 59.1048 60.6908C58.8165 59.7067 57.9522 58.7993 56.6469 58.0153C56.7034 57.9581 56.7599 57.9105 56.8164 57.8724C57.4097 57.451 58.5115 54.6808 59.2656 54.7861C60.0118 54.8817 62.08 56.6287 61.6475 57.4315Z" fill="#139547"/>
</svg>
