<svg width="194" height="85" viewBox="0 0 194 85" fill="none" xmlns="http://www.w3.org/2000/svg">
<g filter="url(#filter0_d_96_2612)">
<path d="M83.0063 30.4759V33.957H98.3757V30.4759H83.0063ZM83.0063 3.48452V6.96562H98.3757V3.48452H83.0063ZM83.0063 15.6735V19.158H97.5046V15.6735H83.0063ZM84.6631 3.48452H80.96V33.957H84.6631V3.48452ZM123.191 0H119.706V33.957H123.191V0ZM102.947 23.9441C102.947 26.0918 103.396 27.949 104.296 29.5159C105.196 31.0851 106.4 32.2899 107.91 33.1303C109.418 33.9729 111.071 34.3943 112.871 34.3943C114.556 34.3943 116.023 33.9729 117.271 33.1303C118.519 32.2899 119.498 31.0851 120.209 29.5159C120.919 27.949 121.275 26.0918 121.275 23.9441C121.275 21.7691 120.919 19.905 120.209 18.3518C119.498 16.7986 118.519 15.6006 117.271 14.758C116.023 13.9176 114.556 13.4974 112.871 13.4974C111.071 13.4974 109.418 13.9176 107.91 14.758C106.4 15.6006 105.196 16.7986 104.296 18.3518C103.396 19.905 102.947 21.7691 102.947 23.9441ZM106.472 23.9441C106.472 22.4068 106.784 21.1007 107.408 20.0257C108.032 18.9531 108.867 18.1411 109.912 17.59C110.958 17.0388 112.089 16.7633 113.308 16.7633C114.324 16.7633 115.325 17.0388 116.311 17.59C117.297 18.1411 118.11 18.9531 118.75 20.0257C119.388 21.1007 119.706 22.4068 119.706 23.9441C119.706 25.4837 119.388 26.7898 118.75 27.8625C118.11 28.9375 117.297 29.7505 116.311 30.3017C115.325 30.8528 114.324 31.1284 113.308 31.1284C112.089 31.1284 110.958 30.8528 109.912 30.3017C108.867 29.7505 108.032 28.9375 107.408 27.8625C106.784 26.7898 106.472 25.4837 106.472 23.9441ZM137.252 34.3977C139.4 34.3977 141.264 33.9695 142.844 33.1132C144.427 32.2569 145.741 30.9872 146.787 29.3041L143.955 27.5175C143.23 28.7359 142.346 29.6435 141.3 30.2402C140.255 30.8346 139.05 31.1318 137.686 31.1318C136.322 31.1318 135.161 30.8414 134.205 30.2607C133.246 29.6799 132.521 28.8384 132.029 27.7361C131.534 26.6338 131.287 25.2992 131.287 23.7323C131.317 22.1927 131.586 20.8935 132.094 19.8344C132.601 18.7754 133.327 17.9624 134.27 17.3953C135.213 16.8305 136.351 16.5481 137.686 16.5481C138.818 16.5481 139.805 16.7952 140.648 17.2894C141.488 17.7813 142.149 18.4623 142.629 19.3323C143.107 20.2045 143.347 21.2351 143.347 22.4239C143.347 22.6266 143.303 22.8805 143.217 23.1857C143.128 23.4909 143.04 23.7164 142.954 23.8621L144.347 21.8602H129.982V24.8187H147.091C147.091 24.7617 147.098 24.6239 147.111 24.4053C147.127 24.1889 147.135 23.9783 147.135 23.7733C147.135 21.6553 146.757 19.8276 146.001 18.2903C145.247 16.7507 144.166 15.5676 142.759 14.7409C141.352 13.9142 139.66 13.5008 137.686 13.5008C135.714 13.5008 133.979 13.9358 132.483 14.8058C130.989 15.6758 129.829 16.8954 129.002 18.4645C128.175 20.0314 127.762 21.8591 127.762 23.9475C127.762 26.0086 128.16 27.8226 128.958 29.3895C129.757 30.9564 130.874 32.1828 132.309 33.0688C133.746 33.9547 135.394 34.3977 137.252 34.3977ZM164.766 21.768V33.957H168.247V21.3341C168.247 18.9246 167.631 17.0161 166.399 15.6086C165.165 14.2011 163.488 13.4974 161.37 13.4974C160.063 13.4974 158.91 13.7878 157.91 14.3685C156.908 14.9493 156.073 15.8489 155.406 17.0673V13.9312H151.921V33.957H155.406V21.768C155.406 20.7819 155.616 19.9119 156.038 19.158C156.457 18.4019 157.051 17.8132 157.821 17.3919C158.591 16.9728 159.484 16.7633 160.499 16.7633C161.891 16.7633 162.95 17.1835 163.676 18.0238C164.403 18.8665 164.766 20.1146 164.766 21.768ZM95.1099 58.844V62.3285H105.253C104.993 63.5173 104.58 64.6344 104.012 65.6798C103.448 66.7251 102.729 67.6543 101.857 68.4674C100.987 69.2804 99.9495 69.9113 98.7447 70.36C97.5399 70.8109 96.1837 71.0364 94.676 71.0364C92.5284 71.0364 90.5834 70.5285 88.8411 69.5127C87.0989 68.497 85.7131 67.0884 84.6836 65.2869C83.6542 63.4877 83.1395 61.413 83.1395 59.0626C83.1395 56.6827 83.6542 54.5999 84.6836 52.8144C85.7131 51.0311 87.0989 49.6316 88.8411 48.6159C90.5834 47.6001 92.5284 47.0923 94.676 47.0923C96.9967 47.0923 99.0134 47.5489 100.726 48.4622C102.439 49.3777 103.773 50.6474 104.73 52.2712L107.343 49.8765C106.473 48.4553 105.406 47.2653 104.142 46.3065C102.881 45.35 101.459 44.6246 99.8789 44.1304C98.296 43.6385 96.5618 43.3925 94.676 43.3925C92.4691 43.3925 90.4228 43.7763 88.5371 44.5438C86.6514 45.3136 85.0116 46.4022 83.6178 47.8097C82.224 49.2171 81.1422 50.8785 80.3724 52.7939C79.6049 54.7092 79.2211 56.7988 79.2211 59.0626C79.2211 61.3264 79.6049 63.416 80.3724 65.3313C81.1422 67.2467 82.224 68.9081 83.6178 70.3156C85.0116 71.723 86.6514 72.8117 88.5371 73.5814C90.4228 74.3512 92.4691 74.7361 94.676 74.7361C96.9967 74.7361 99.0647 74.308 100.88 73.4516C102.693 72.5953 104.223 71.427 105.471 69.9466C106.719 68.4663 107.662 66.7752 108.3 64.8736C108.94 62.9742 109.26 60.9643 109.26 58.844H95.1099ZM117.968 74.2954V54.2697H114.487V74.2954H117.968ZM124.021 58.1027L125.934 55.2296C125.413 54.6785 124.84 54.3084 124.216 54.1194C123.592 53.9303 122.918 53.8358 122.193 53.8358C121.264 53.8358 120.35 54.1991 119.45 54.9256C118.551 55.6498 117.817 56.6291 117.25 57.8635C116.685 59.0956 116.403 60.5099 116.403 62.1064H117.968C117.968 61.1499 118.062 60.2936 118.251 59.5375C118.44 58.7836 118.782 58.1892 119.276 57.7542C119.768 57.3192 120.45 57.1017 121.322 57.1017C121.903 57.1017 122.381 57.1814 122.757 57.3408C123.135 57.5003 123.557 57.7542 124.021 58.1027ZM127.673 64.2826C127.673 66.2867 128.131 68.0791 129.046 69.6596C129.96 71.2425 131.2 72.4837 132.767 73.3833C134.333 74.2829 136.089 74.7327 138.034 74.7327C140.009 74.7327 141.773 74.2829 143.326 73.3833C144.877 72.4837 146.11 71.2425 147.026 69.6596C147.939 68.0791 148.396 66.2867 148.396 64.2826C148.396 62.2511 147.939 60.4519 147.026 58.885C146.11 57.3181 144.877 56.0848 143.326 55.1852C141.773 54.2856 140.009 53.8358 138.034 53.8358C136.089 53.8358 134.333 54.2856 132.767 55.1852C131.2 56.0848 129.96 57.3181 129.046 58.885C128.131 60.4519 127.673 62.2511 127.673 64.2826ZM131.199 64.2826C131.199 62.891 131.497 61.6509 132.094 60.5623C132.688 59.4737 133.5 58.6242 134.529 58.0138C135.561 57.4058 136.729 57.1017 138.034 57.1017C139.342 57.1017 140.51 57.4058 141.539 58.0138C142.569 58.6242 143.382 59.4737 143.979 60.5623C144.573 61.6509 144.87 62.891 144.87 64.2826C144.87 65.6764 144.573 66.9108 143.979 67.9857C143.382 69.0584 142.569 69.9068 141.539 70.5308C140.51 71.1548 139.342 71.4668 138.034 71.4668C136.729 71.4668 135.561 71.1548 134.529 70.5308C133.5 69.9068 132.688 69.0584 132.094 67.9857C131.497 66.9108 131.199 65.6764 131.199 64.2826ZM153.841 54.2697H149.923L159.502 75.819L169.077 54.2697H165.159L159.502 68.4196L153.841 54.2697ZM180.088 74.7327C182.235 74.7327 184.101 74.3045 185.683 73.4482C187.264 72.5919 188.577 71.3222 189.622 69.6391L186.794 67.8525C186.067 69.0732 185.182 69.9808 184.139 70.5752C183.094 71.1696 181.889 71.4668 180.525 71.4668C179.161 71.4668 177.999 71.1764 177.04 70.5957C176.084 70.0149 175.359 69.1734 174.864 68.0711C174.372 66.9688 174.126 65.6342 174.126 64.0673C174.154 62.5278 174.421 61.2285 174.929 60.1695C175.437 59.1104 176.163 58.2985 177.105 57.7337C178.051 57.1666 179.19 56.8831 180.525 56.8831C181.657 56.8831 182.643 57.1302 183.483 57.6244C184.326 58.1163 184.987 58.7984 185.465 59.6707C185.943 60.5407 186.182 61.5701 186.182 62.7589C186.182 62.9639 186.139 63.2178 186.052 63.5207C185.966 63.8259 185.879 64.0514 185.793 64.1972L187.187 62.1953H172.818V65.1537H189.926C189.926 65.0967 189.934 64.959 189.95 64.7403C189.964 64.524 189.971 64.3133 189.971 64.1083C189.971 61.9903 189.594 60.1626 188.84 58.6253C188.084 57.0858 187.002 55.9026 185.595 55.0759C184.187 54.2492 182.497 53.8358 180.525 53.8358C178.55 53.8358 176.816 54.2708 175.322 55.1408C173.828 56.0131 172.667 57.2327 171.838 58.7996C171.011 60.3665 170.598 62.1941 170.598 64.2826C170.598 66.3437 170.997 68.1577 171.797 69.7246C172.594 71.2915 173.711 72.5179 175.148 73.4038C176.585 74.2897 178.232 74.7327 180.088 74.7327ZM46.2207 20.5942L46.1814 20.6202C46.138 20.4381 45.7824 19.9045 42.9623 21.0195C40.1552 22.1342 41.3352 22.1257 40.3158 23.128C39.3005 24.1255 39.3179 23.6616 39.4392 22.8239C39.5608 21.9781 40.0121 21.3277 40.0814 20.9976C40.1508 20.6635 39.7648 19.926 38.6453 20.117C37.5258 20.3079 38.7624 21.275 38.8622 22.2692C38.9664 23.2626 38.0857 23.7743 37.7905 23.8741C37.4865 23.9738 36.7103 23.4751 36.4456 22.8936C36.1808 22.3122 36.4241 21.6614 36.736 20.6724C37.0489 19.6831 36.4022 18.8762 35.4781 19.5314L35.3654 19.9434C35.2526 20.3602 35.513 20.8545 35.543 21.9087C35.5779 22.963 35.8163 23.8266 35.8122 24.4904C35.7992 25.1541 34.5236 25.3492 34.1895 25.0978C33.8513 24.846 34.046 22.7116 33.8903 22.2039C33.7345 21.6963 33.7167 20.4815 33.1182 19.9174C32.5149 19.3579 32.5627 20.3424 32.6707 21.4137C32.7786 22.4851 33.0567 23.1454 33.452 23.896C33.8513 24.6465 33.0444 25.0499 32.7059 24.7722C32.3677 24.4945 32.1419 24.3254 31.4562 23.7132C30.7754 23.0976 31.3783 22.9326 31.2567 21.7267C31.1269 20.5119 30.9356 20.6246 30.3583 20.3944C29.7816 20.1648 30.0549 21.1452 30.1072 22.8721C30.1635 24.6031 30.4413 23.8696 30.7276 24.6417C31.0138 25.4138 31.3479 25.4794 31.0138 25.4185C30.6756 25.3536 28.1852 23.0931 27.8251 22.5985C27.4647 22.1042 26.7272 19.9783 27.0309 22.9456C27.3349 25.9132 33.4 27.9134 33.4 27.9134L44.5676 21.5876L33.439 28.2649C33.439 28.2649 33.9726 33.753 37.4735 35.0068C40.9751 36.265 38.6193 34.9504 38.1376 34.495C37.6559 34.0393 35.6909 31.2975 35.7213 31.0068C35.7514 30.7164 35.7213 31.0068 36.5716 31.5014C37.4175 31.9916 36.4415 31.9612 38.524 32.5905C40.6021 33.2239 41.6997 33.7793 41.6044 33.2413C41.5087 32.7032 41.7 32.5905 40.272 32.074C38.8407 31.5663 38.4546 31.9872 37.9296 31.237C37.396 30.4861 37.2614 30.2477 37.0311 29.8832C36.8015 29.5231 37.5391 29.0196 38.3286 29.5925C39.167 30.2235 40.0997 30.7183 41.0923 31.0587C42.3593 31.5096 43.5393 31.883 43.0446 31.2151C42.55 30.5514 41.0837 30.1175 40.5197 29.8268C39.9557 29.5228 37.3003 28.9502 37.1008 28.599C36.9057 28.2519 37.5391 27.2975 38.346 27.5229C39.1529 27.7399 40.1248 28.2256 41.3915 28.6076C42.6631 28.998 43.1792 29.3755 43.7173 29.4234L44.255 29.4753C45.3919 29.0848 44.559 28.1782 43.2616 28.0869C41.9689 28.0002 41.1012 27.9698 40.4808 27.5619C39.8556 27.1499 39.4915 26.3645 39.7084 26.1605C40.0309 25.917 40.411 25.761 40.8116 25.7077C41.2123 25.6545 41.6199 25.7057 41.9948 25.8565C43.1663 26.2733 43.9513 27.5878 44.5331 26.7679C45.1138 25.9481 44.3377 25.384 43.9123 25.3229C43.4915 25.2669 42.563 25.4056 41.5046 25.2102C40.4456 25.0195 39.8731 24.8764 41.4049 24.4121C42.9367 23.9479 42.5589 24.8808 44.789 23.0282C47.4006 20.8675 46.2203 20.5986 46.2203 20.5986" fill="#139547"/>
<path d="M44.2202 46.9553C43.7303 46.695 43.1441 46.6212 41.8903 46.1484C40.641 45.6711 39.6172 45.4105 38.8318 45.0982C38.0468 44.7815 37.808 43.9265 38.1031 43.8445C38.3983 43.7625 40.9362 44.8772 41.5347 45.0244C42.1336 45.1679 43.5742 45.723 44.2421 45.6277C44.9058 45.5365 43.7388 45.0982 42.4632 44.6644C41.1965 44.2305 40.4156 44.0829 39.526 43.9702C38.6323 43.853 38.1551 43.1893 38.4847 43.1155C38.8103 43.0417 39.0098 42.9856 39.7344 42.8681C40.4586 42.7469 40.6585 43.1852 42.0902 43.6754C43.5219 44.1656 43.3918 43.9965 43.6651 43.7621C43.9384 43.523 42.7758 43.2326 40.7278 42.4561C38.6757 41.6752 39.5479 42.1873 38.6323 41.9963C37.7127 41.805 37.6389 41.9745 37.7127 41.805C37.7865 41.6318 40.459 41.2065 41.0401 41.2239C41.6212 41.2413 44.1468 41.7924 40.6325 40.5906C37.1183 39.3887 34.7625 42.0612 34.7625 42.0612L42.2767 51.6279L34.6063 42.2307C34.6063 42.2307 33.0445 41.6667 31.335 41.3021C31.0832 40.5342 30.4758 39.3149 29.8295 37.6489C28.8531 35.1455 28.7144 35.6835 28.1938 35.3105C28.2979 34.9431 28.4136 34.5859 28.5409 34.2388C30.2978 34.9767 32.8275 36.2346 33.4001 36.6729C34.2593 37.3236 36.7275 40.6643 34.359 35.5489C33.5128 33.7226 31.6517 32.5905 29.6081 31.8834C30.4324 30.4513 31.5041 29.3407 32.8839 28.8026C32.8839 28.8026 32.5108 28.8245 32.1853 28.0647C32.0162 27.6746 30.6408 28.5727 29.1483 31.7313C28.5379 31.54 27.929 31.3852 27.3216 31.2667C27.1782 31.0501 26.8922 30.7201 26.3846 30.2214C23.8463 27.718 22.4628 30.2214 22.4628 30.2214C22.4628 30.2214 22.3323 30.6118 22.4409 30.7372C21.9637 30.729 21.6815 30.7372 21.6815 30.7372L9.14303 49.2154L21.3908 30.1346C21.3908 30.1346 17.0522 20.6461 11.0346 20.6461C5.0173 20.6461 9.36884 21.4831 10.3753 21.9911C11.3864 22.4898 16.0847 26.1431 16.2279 26.6767C16.3669 27.2192 16.2279 26.6767 14.6445 26.3471C13.0652 26.0089 14.5403 25.436 11.0349 25.6399C7.52956 25.8439 5.53793 25.5531 6.03225 26.4554C6.52692 27.3538 6.30999 27.6876 8.76521 27.6876C11.2204 27.6876 11.5252 26.6812 12.8004 27.6876C14.0712 28.6899 14.4276 29.0284 15.0005 29.5316C15.573 30.0348 14.805 31.4058 13.265 30.8851C11.6423 30.2987 9.92684 30.0105 8.20154 30.0345C6.02371 30.0345 4.03241 30.1216 5.19528 31.0023C6.35815 31.883 8.82192 31.7095 9.85497 31.8786C10.8829 32.0436 15.2041 31.3754 15.7247 31.8786C16.2453 32.3818 15.9157 34.4817 14.5751 34.6033C13.2302 34.7249 11.4688 34.4817 9.33401 34.6033C7.19923 34.7249 6.18427 34.3864 5.3514 34.6423L4.51375 34.894C3.07792 36.3213 4.90422 37.4104 6.88698 36.7378C8.87418 36.0699 10.1843 35.566 11.369 35.9008C12.562 36.2346 13.6118 37.4104 13.4211 37.9136C13.1386 38.5221 12.6858 39.0356 12.1176 39.3921C11.5493 39.7486 10.8899 39.9328 10.2191 39.9223C8.20153 39.9223 6.18426 38.0786 5.8546 39.9223C5.5205 41.7664 7.03456 42.2693 7.70276 42.1046C8.37097 41.9311 9.66367 41.0982 11.3646 40.7597C13.0652 40.4255 14.0019 40.3173 12.0239 42.1306C10.0456 43.9487 10.0066 42.0349 7.88075 46.7732C5.39478 52.3132 7.32528 52.0444 7.32528 52.0444L7.36866 51.9795C7.5463 52.2698 8.42734 53.0033 11.8938 49.2028C15.3602 45.4023 13.6077 46.1743 14.4754 43.7273C15.3431 41.2892 15.6119 42.1309 15.9809 43.7143C16.3451 45.3022 16.0892 46.7513 16.2019 47.3891C16.2951 47.7329 16.5082 48.0321 16.8026 48.2326C17.0971 48.433 17.4535 48.5216 17.8075 48.4823L20.2023 60.0144C20.2023 61.099 22.762 61.9753 25.9203 61.9753C29.0789 61.9753 31.6431 61.099 31.6431 60.0144L34.0683 48.3436C34.5455 48.6213 35.018 48.4393 35.0658 47.9227C35.127 47.22 35.1355 46.7383 35.5738 46.5692C36.0077 46.3957 36.8624 46.5429 37.0923 46.7599C37.3222 46.9768 37.9207 47.7277 37.4913 48.2049C37.0575 48.6866 35.6387 48.5431 36.5587 49.2462C37.4787 49.9492 38.0772 49.762 38.1291 49.5454C38.177 49.3285 38.0034 48.7341 38.1855 48.2179C38.372 47.6973 38.5111 47.437 39.0662 48.5216C39.6213 49.6062 38.5804 48.9725 40.6759 51.0813C42.7803 53.1984 43.279 53.0986 43.3788 53.0252L43.4048 53.0593C43.4048 53.0593 44.5372 53.5455 42.9753 50.9772C41.643 48.7819 41.6567 49.4891 40.4679 48.4174C39.279 47.3457 39.8256 47.5712 40.8276 48.0355C41.8251 48.5001 42.5979 49.0726 42.9928 49.2677C43.3832 49.4672 44.2595 49.5799 44.034 48.8253C43.7997 48.0703 42.6587 48.3566 41.4787 47.9531C40.7029 47.7158 40.03 47.2235 39.569 46.5559C39.4481 46.3349 40.0425 46.105 40.7278 46.2177C41.4179 46.3304 42.19 46.7814 43.3658 47.4325C44.5417 48.0833 45.5829 48.0355 44.7152 47.2156L44.2202 46.9553ZM33.2744 44.4215C32.7449 44.5906 32.3199 44.7686 31.912 45.1594C31.42 44.9886 30.872 44.8394 30.2678 44.7118C30.3602 44.6542 30.4686 44.5531 30.593 44.4085C31.1136 43.8271 30.6364 43.4106 31.4522 43.454C32.2676 43.4844 32.5238 43.5148 32.9184 43.5497C33.3133 43.5838 33.8818 44.2305 33.2744 44.4215ZM31.1266 42.5562C30.606 42.8159 30.6148 42.2741 29.977 43.1763C29.4564 43.9094 28.9792 44.2958 29.1309 44.5212C28.7375 44.4634 28.3326 44.4171 27.9161 44.3825C27.733 43.6659 27.4742 42.9707 27.144 42.3089C27.3913 42.2436 27.6906 42.122 27.8682 42.1005C28.1289 42.0571 29.0834 42.0742 29.977 42.122C30.2674 42.2826 30.5715 42.2218 31.0617 42.2392C31.1368 42.2422 31.2017 42.2349 31.2564 42.2173C31.4534 42.2435 31.5837 42.2681 31.6472 42.2911C31.9639 42.4387 31.6472 42.2915 31.1266 42.5562ZM28.8664 40.4344C28.9644 40.6485 29.0555 40.8364 29.1397 40.9981C28.3199 40.9766 27.6298 41.0982 27.2871 41.4842L27.0398 41.7794C27.1696 40.3343 27.378 38.7766 27.7036 37.2543C28.5279 37.8528 28.0203 38.6037 28.8664 40.4344ZM26.402 40.8119C25.8057 39.7587 25.0605 38.7972 24.1893 37.957C23.1177 36.8679 24.0592 35.6316 24.7404 35.9093C25.4216 36.1867 25.8643 36.3517 27.2612 37.0025C26.9544 38.139 26.668 39.409 26.402 40.8119ZM27.8597 34.9894L27.7729 34.8766C26.8444 33.6748 26.2978 33.779 26.8444 33.6748C26.992 33.6441 27.4996 33.8138 28.1723 34.0827C28.0652 34.3719 27.961 34.6742 27.8597 34.9894ZM23.1829 30.3515C24.2153 29.397 25.7816 30.8288 25.9985 31.0327C24.8914 30.8715 23.7759 30.7745 22.6575 30.742C22.8497 30.6386 23.0253 30.507 23.1785 30.3515M22.3193 36.282C22.9831 36.5123 24.0718 40.4648 24.6321 41.2717C24.9617 41.749 25.3912 42.7164 25.9422 43.5452L25.8424 44.3002C24.8791 44.3029 23.965 44.3578 23.1002 44.4649C22.8237 43.9442 22.5773 43.4082 22.3624 42.8592C21.6251 40.994 20.714 39.5968 20.2976 38.4079C19.8812 37.2191 21.66 36.0477 22.3193 36.282ZM17.7553 40.7771C18.1369 40.404 19.6164 40.803 20.3888 41.6708C21.0092 42.3779 21.1698 43.3802 21.2999 44.7771C20.0633 45.0548 19.0613 45.4453 18.4016 45.9051C17.9078 45.4602 17.4965 44.9314 17.1868 44.3432C16.9243 43.7579 16.8382 43.1087 16.9392 42.4752C17.0402 41.8417 17.3238 41.2514 17.7553 40.7767M25.92 50.0616C22.5277 50.0616 19.612 49.3674 18.2933 48.3696C18.4899 48.3001 18.6937 48.1945 18.9048 48.0529C19.7418 47.4803 19.3995 46.9423 18.7876 46.2956C19.5807 45.8419 20.447 45.5307 21.3474 45.376L21.3908 45.8358C21.5643 47.8056 23.0442 48.8383 23.9939 47.0769L23.8983 46.2611C23.8552 45.8921 23.6817 45.541 23.4432 45.0893C24.1288 45.0404 24.8981 45.0187 25.7512 45.0244C25.6355 45.9386 25.5342 46.8989 25.4472 47.9053C25.4472 47.9053 25.5083 48.6863 26.8533 48.1308C26.8533 48.1308 26.7925 46.8989 26.8444 45.0507C28.9139 45.1245 30.402 45.3544 31.4696 45.6537C31.1655 46.0442 31.0357 46.3738 31.6127 46.3868C31.9988 46.3998 32.298 46.2177 32.5453 46.0179C33.396 46.3827 33.8162 46.7817 34.0205 47.081C33.8035 47.2849 33.63 47.4021 33.6037 47.5842L33.5606 47.8664C33.6417 47.9791 33.7242 48.0745 33.808 48.1526C32.6451 49.2629 29.5562 50.0616 25.92 50.0616ZM35.5564 45.3712C35.3395 45.7319 34.8274 46.0657 34.4369 46.6212C34.3763 46.7077 34.3156 46.7843 34.2548 46.8511C34.1072 46.4042 33.6648 45.9922 32.9966 45.6363C33.0255 45.6103 33.0545 45.5887 33.0834 45.5714C33.3871 45.3801 33.9511 44.1222 34.3371 44.17C34.7191 44.2134 35.7778 45.0067 35.5564 45.3712Z" fill="#139547"/>
<path d="M61.6345 2.7749V77V2.7749Z" fill="black"/>
<path d="M61.6345 2.7749V77" stroke="#139547" stroke-width="5.64069"/>
</g>
<defs>
<filter id="filter0_d_96_2612" x="0" y="0" width="193.971" height="85" filterUnits="userSpaceOnUse" color-interpolation-filters="sRGB">
<feFlood flood-opacity="0" result="BackgroundImageFix"/>
<feColorMatrix in="SourceAlpha" type="matrix" values="0 0 0 0 0 0 0 0 0 0 0 0 0 0 0 0 0 0 127 0" result="hardAlpha"/>
<feOffset dy="4"/>
<feGaussianBlur stdDeviation="2"/>
<feComposite in2="hardAlpha" operator="out"/>
<feColorMatrix type="matrix" values="0 0 0 0 0 0 0 0 0 0 0 0 0 0 0 0 0 0 0.15 0"/>
<feBlend mode="normal" in2="BackgroundImageFix" result="effect1_dropShadow_96_2612"/>
<feBlend mode="normal" in="SourceGraphic" in2="effect1_dropShadow_96_2612" result="shape"/>
</filter>
</defs>
</svg>
