<svg width="27" height="28" viewBox="0 0 27 28" fill="none" xmlns="http://www.w3.org/2000/svg">
<path d="M18.7083 14.4537V24.0447C18.7083 25.4007 17.4681 26.5 15.9121 26.5H3.79948C2.24023 26.5 1 25.4007 1 24.0447V9.31253C1.00444 8.66251 1.30767 8.04019 1.84393 7.58054C2.38018 7.1209 3.10622 6.86099 3.86458 6.85718H9.99219C10.2043 6.85745 10.4142 6.89391 10.6097 6.96443C10.8052 7.03494 10.9823 7.1381 11.1309 7.26789L18.237 13.4621C18.5393 13.7271 18.7085 14.0831 18.7083 14.4537Z" stroke="black" stroke-width="1.3" stroke-linejoin="round"/>
<path d="M9.854 6.85718V12.884C9.85975 13.2968 10.0537 13.6914 10.3943 13.9834C10.7349 14.2753 11.1952 14.4415 11.6769 14.4465H18.7082" stroke="black" stroke-width="1.3" stroke-linecap="round" stroke-linejoin="round"/>
<path d="M8.29175 6.85714V3.95536C8.29619 3.30533 8.59942 2.68301 9.13567 2.22336C9.67193 1.76372 10.398 1.50381 11.1563 1.5H17.2761C17.4894 1.50025 17.7005 1.53667 17.8972 1.60716C18.094 1.67765 18.2726 1.78082 18.4226 1.91071L25.5287 8.10491C25.8309 8.36708 26.0002 8.72078 26.0001 9.08929V18.6875C26.0001 20.0435 24.7598 21.1429 23.2039 21.1429H19.2292" stroke="black" stroke-width="1.3" stroke-linejoin="round"/>
<path d="M17.1458 1.5V7.52679C17.1515 7.93966 17.3454 8.33423 17.686 8.6262C18.0267 8.91816 18.487 9.08436 18.9687 9.08929H25.9999" stroke="black" stroke-width="1.3" stroke-linecap="round" stroke-linejoin="round"/>
</svg>
