<svg width="28" height="31" viewBox="0 0 28 31" fill="none" xmlns="http://www.w3.org/2000/svg">
<path d="M14 19.25V22.25M6.5 12.5432C7.20713 12.5 8.07889 12.5 9.2 12.5H18.8C19.9211 12.5 20.7929 12.5 21.5 12.5432M6.5 12.5432C5.61752 12.5971 4.99144 12.7182 4.45705 12.9905C3.61031 13.4219 2.9219 14.1102 2.49047 14.957C2 15.9197 2 17.1797 2 19.7V21.8C2 24.3203 2 25.5803 2.49047 26.543C2.9219 27.3897 3.61031 28.0781 4.45705 28.5095C5.41964 29 6.67976 29 9.2 29H18.8C21.3203 29 22.5803 29 23.543 28.5095C24.3897 28.0781 25.0781 27.3897 25.5095 26.543C26 25.5803 26 24.3203 26 21.8V19.7C26 17.1797 26 15.9197 25.5095 14.957C25.0781 14.1102 24.3897 13.4219 23.543 12.9905C23.0085 12.7182 22.3824 12.5971 21.5 12.5432M6.5 12.5432V9.5C6.5 5.35787 9.85787 2 14 2C18.1421 2 21.5 5.35787 21.5 9.5V12.5432" stroke="black" stroke-width="3" stroke-linecap="round" stroke-linejoin="round"/>
</svg>
