<svg width="33" height="33" viewBox="0 0 33 33" fill="none" xmlns="http://www.w3.org/2000/svg">
<g clip-path="url(#clip0_315_1004)">
<path d="M28.8557 2.70462e-07C30.6932 2.70462e-07 31.6133 2.2216 30.3141 3.52091L28.5771 5.25777C29.7432 6.51036 30.7114 7.9412 31.4423 9.50184C32.5932 11.9591 33.1202 14.6623 32.9768 17.372C32.8335 20.0816 32.0239 22.7141 30.6202 25.0363C29.2165 27.3582 27.2616 29.2984 24.9289 30.6844C22.5962 32.0706 19.9578 32.8602 17.2472 32.9831C14.5365 33.106 11.8374 32.5584 9.38884 31.389C6.94032 30.2198 4.81799 28.4644 3.20986 26.2789C1.60172 24.0933 0.5574 21.5449 0.169409 18.8593C0.00653385 17.732 0.788421 16.686 1.9158 16.5231C3.04319 16.3602 4.08914 17.1421 4.25202 18.2695C4.54302 20.2837 5.32625 22.195 6.53236 23.8343C7.73847 25.4733 9.33021 26.7898 11.1666 27.6668C13.003 28.5438 15.0273 28.9544 17.0603 28.8624C19.0933 28.7702 21.0723 28.1781 22.8217 27.1384C24.5711 26.0987 26.0373 24.6438 27.09 22.9022C28.1429 21.1606 28.7501 19.1862 28.8576 17.154C28.965 15.1217 28.5699 13.0943 27.7067 11.2514C27.1795 10.1258 26.4878 9.09028 25.6578 8.17707L24.1458 9.68919C22.8464 10.9885 20.6248 10.0683 20.6248 8.2308V2.70462e-07H28.8557ZM3.09362 8.25C4.23269 8.25 5.15612 9.17342 5.15612 10.3125C5.15612 11.4516 4.23269 12.375 3.09362 12.375C1.95453 12.375 1.03112 11.4516 1.03112 10.3125C1.03112 9.17342 1.95453 8.25 3.09362 8.25ZM7.73424 2.57813C8.87332 2.57813 9.79674 3.50155 9.79674 4.64063C9.79674 5.77972 8.87332 6.70313 7.73424 6.70313C6.59514 6.70313 5.67174 5.7797 5.67174 4.64063C5.67174 3.50155 6.59514 2.57813 7.73424 2.57813ZM14.4374 0C15.5764 0 16.4999 0.923414 16.4999 2.0625C16.4999 3.2016 15.5764 4.125 14.4374 4.125C13.2983 4.125 12.3749 3.2016 12.3749 2.0625C12.3749 0.923414 13.2983 0 14.4374 0Z" fill="#727374" stroke="#727374" stroke-width="0.00175"/>
</g>
<defs>
<clipPath id="clip0_315_1004">
<rect width="33" height="33" fill="white"/>
</clipPath>
</defs>
</svg>
