<svg width="27" height="28" viewBox="0 0 27 28" fill="none" xmlns="http://www.w3.org/2000/svg">
<path d="M21.0321 7.94919C20.9569 7.9367 20.8693 7.9367 20.7942 7.94919C19.0661 7.8867 17.6887 6.47438 17.6887 4.7246C17.6887 2.93732 19.1287 1.5 20.9194 1.5C22.71 1.5 24.15 2.94982 24.15 4.7246C24.1375 6.47438 22.7601 7.8867 21.0321 7.94919Z" stroke="black" stroke-width="1.5" stroke-linecap="round" stroke-linejoin="round"/>
<path d="M19.7422 17.048C21.4577 17.3355 23.3485 17.0355 24.6758 16.1482C26.4414 14.9733 26.4414 13.0485 24.6758 11.8737C23.336 10.9864 21.4201 10.6864 19.7046 10.9863" stroke="black" stroke-width="1.5" stroke-linecap="round" stroke-linejoin="round"/>
<path d="M5.96806 7.94919C6.04319 7.9367 6.13085 7.9367 6.20598 7.94919C7.934 7.8867 9.31142 6.47438 9.31142 4.7246C9.31142 2.93732 7.8714 1.5 6.08076 1.5C4.29012 1.5 2.8501 2.94982 2.8501 4.7246C2.86262 6.47438 4.24003 7.8867 5.96806 7.94919Z" stroke="black" stroke-width="1.5" stroke-linecap="round" stroke-linejoin="round"/>
<path d="M7.25784 17.048C5.54233 17.3355 3.65152 17.0355 2.3242 16.1482C0.558602 14.9733 0.558602 13.0485 2.3242 11.8737C3.66404 10.9864 5.5799 10.6864 7.29541 10.9863" stroke="black" stroke-width="1.5" stroke-linecap="round" stroke-linejoin="round"/>
<path d="M13.5189 17.2855C13.4438 17.273 13.3562 17.273 13.281 17.2855C11.553 17.223 10.1755 15.8107 10.1755 14.0609C10.1755 12.2737 11.6156 10.8363 13.4062 10.8363C15.1969 10.8363 16.6369 12.2862 16.6369 14.0609C16.6244 15.8107 15.247 17.2355 13.5189 17.2855Z" stroke="black" stroke-width="1.5" stroke-linecap="round" stroke-linejoin="round"/>
<path d="M9.87498 21.2225C8.10938 22.3974 8.10938 24.3221 9.87498 25.497C11.8785 26.8343 15.1593 26.8343 17.1628 25.497C18.9284 24.3221 18.9284 22.3974 17.1628 21.2225C15.1718 19.8977 11.8785 19.8977 9.87498 21.2225Z" stroke="black" stroke-width="1.5" stroke-linecap="round" stroke-linejoin="round"/>
</svg>
