<svg width="32" height="28" viewBox="0 0 32 28" fill="none" xmlns="http://www.w3.org/2000/svg">
<path d="M25.5455 17.5714C28.5579 17.5714 31 21.1429 31 23.8214C31 25.3007 30.0842 26.5 28.9545 26.5H28.2727M22.8182 12.2143C25.0776 12.2143 26.9091 9.8158 26.9091 6.85714C26.9091 3.89848 25.0776 1.5 22.8182 1.5M6.45455 17.5714C3.44208 17.5714 1 21.1429 1 23.8214C1 25.3007 1.91578 26.5 3.04545 26.5H3.72727M9.18182 12.2143C6.92248 12.2143 5.09091 9.8158 5.09091 6.85714C5.09091 3.89848 6.92248 1.5 9.18182 1.5M22.1364 26.5H9.86364C8.73396 26.5 7.81818 25.3007 7.81818 23.8214C7.81818 19.3571 11.9091 17.5714 16 17.5714C20.0909 17.5714 24.1818 19.3571 24.1818 23.8214C24.1818 25.3007 23.266 26.5 22.1364 26.5ZM20.0909 6.85714C20.0909 9.8158 18.2594 12.2143 16 12.2143C13.7406 12.2143 11.9091 9.8158 11.9091 6.85714C11.9091 3.89848 13.7406 1.5 16 1.5C18.2594 1.5 20.0909 3.89848 20.0909 6.85714Z" stroke="black" stroke-width="1.5" stroke-linecap="round" stroke-linejoin="round"/>
</svg>
