<svg width="27" height="27" viewBox="0 0 27 27" fill="none" xmlns="http://www.w3.org/2000/svg">
<path fill-rule="evenodd" clip-rule="evenodd" d="M13.5 13.5C10.5219 13.5 8.1 11.0781 8.1 8.1C8.1 5.1219 10.5219 2.7 13.5 2.7C16.4781 2.7 18.9 5.1219 18.9 8.1C18.9 11.0781 16.4781 13.5 13.5 13.5ZM18.5733 14.4085C20.4174 12.9249 21.6 10.6515 21.6 8.1C21.6 3.6261 17.9739 0 13.5 0C9.0261 0 5.4 3.6261 5.4 8.1C5.4 10.6515 6.58261 12.9249 8.42671 14.4085C3.48706 16.2648 0 20.8507 0 27H2.7C2.7 20.25 7.54515 16.2 13.5 16.2C19.4548 16.2 24.3 20.25 24.3 27H27C27 20.8507 23.5129 16.2648 18.5733 14.4085Z" fill="black"/>
</svg>
