<svg width="30" height="26" viewBox="0 0 30 26" fill="none" xmlns="http://www.w3.org/2000/svg">
<path d="M6.50001 17.8076C4.84549 17.8076 3.5 19.5326 3.5 21.6538C3.5 23.7749 4.84549 25.4999 6.50001 25.4999C8.15453 25.4999 9.50002 23.7749 9.50002 21.6538C9.50002 19.5326 8.15453 17.8076 6.50001 17.8076ZM6.50001 24.2178C5.39698 24.2178 4.50002 23.0678 4.50002 21.6538C4.50002 20.2397 5.39704 19.0897 6.50001 19.0897C7.60298 19.0897 8.5 20.2397 8.5 21.6538C8.5 23.0678 7.60304 24.2178 6.50001 24.2178Z" fill="black"/>
<path d="M23.2571 17.8076C21.6026 17.8076 20.2571 19.5326 20.2571 21.6538C20.2571 23.7749 21.6026 25.4999 23.2571 25.4999C24.9116 25.4999 26.2571 23.7749 26.2571 21.6538C26.2572 19.5326 24.9111 17.8076 23.2571 17.8076ZM23.2571 24.2178C22.1541 24.2178 21.2571 23.0678 21.2571 21.6538C21.2571 20.2397 22.1541 19.0897 23.2571 19.0897C24.3601 19.0897 25.2571 20.2397 25.2571 21.6538C25.2571 23.0678 24.3596 24.2178 23.2571 24.2178Z" fill="black"/>
<path d="M29.5001 15.8846H29.0002V1.141C29.0002 0.786509 28.7761 0.5 28.5002 0.5H13.0001C11.897 0.5 11.0001 1.65002 11.0001 3.06408V16.5256H10.0001V6.91023C10.0001 6.55574 9.77605 6.26923 9.50008 6.26923H3.50005C3.33306 6.26923 3.17702 6.37628 3.08404 6.55446L0.0840238 12.3237C0.0294728 12.4289 0 12.5532 0 12.6795V19.7308C0 20.0853 0.224005 20.3718 0.499982 20.3718H1.99999C2.21198 20.3718 2.40101 20.2 2.47149 19.9442C3.03499 17.8999 4.55099 16.5256 6.24401 16.5256C7.29501 16.5256 8.55953 17.0153 9.18554 17.6647C9.27607 17.7589 9.38752 17.8077 9.50002 17.8077H11V19.7308C11 20.0853 11.224 20.3718 11.5 20.3718H19.013C19.225 20.3718 19.4141 20.2 19.4846 19.9442C20.048 17.8999 21.5641 16.5256 23.2571 16.5256C24.9406 16.5256 26.4496 17.8852 27.0206 19.9122C27.0816 20.1776 27.273 20.3718 27.5 20.3718H29.5C29.776 20.3718 30 20.0853 30 19.7308V16.5256C30.0001 16.1711 29.7761 15.8846 29.5001 15.8846ZM3.76753 7.55131H7.00005V12.0385H1.43403L3.76753 7.55131ZM9.00004 16.0282C8.11251 15.4929 7.03556 15.2435 6.24401 15.2435C4.24847 15.2435 2.44952 16.7718 1.65997 19.0897H1.00002V15.8846H1.50001C1.77598 15.8846 1.99999 15.5981 1.99999 15.2436C1.99999 14.8891 1.77598 14.6026 1.50001 14.6026H1.00002V13.3205H7.50003C7.77601 13.3205 8.00001 13.034 8.00001 12.6795V7.55131H9.00004V16.0282ZM29.0001 19.0898H27.8406C27.0511 16.7718 25.2521 15.2436 23.2571 15.2436C21.2615 15.2436 19.4626 16.7719 18.673 19.0898H12V3.06408C12 2.35705 12.4485 1.782 13.0001 1.782H28.0001V13.3205H27.5001C27.2242 13.3205 27.0002 13.607 27.0002 13.9615C27.0002 14.316 27.2242 14.6025 27.5001 14.6025H28.0001V16.5255C28.0001 16.88 28.2241 17.1665 28.5001 17.1665H29.0001V19.0898Z" fill="black"/>
</svg>
