<svg width="29" height="27" viewBox="0 0 29 27" fill="none" xmlns="http://www.w3.org/2000/svg">
<path d="M28.7254 22.9825L16.4351 1.74906C16.2174 1.43062 15.9278 1.1706 15.5909 0.991062C15.2539 0.811523 14.8796 0.717773 14.4996 0.717773C14.1196 0.717773 13.7453 0.811523 13.4083 0.991062C13.0714 1.1706 12.7818 1.43062 12.5641 1.74906L0.273777 22.9825C0.0886179 23.3262 -0.00565683 23.7133 0.000262522 24.1056C0.00618187 24.498 0.112091 24.882 0.30753 25.2197C0.50297 25.5574 0.781182 25.8371 1.11469 26.0313C1.4482 26.2254 1.82548 26.3273 2.20926 26.3268H26.7125C27.1028 26.3414 27.4899 26.2499 27.8343 26.0616C28.1787 25.8732 28.468 25.5948 28.6727 25.2547C28.8774 24.9146 28.9901 24.5251 28.9994 24.1259C29.0086 23.7266 28.9141 23.3321 28.7254 22.9825ZM2.28668 24.0708L14.4996 2.85723L26.7125 24.0708H2.28668Z" fill="#FF0004"/>
<path d="M13.1836 8.41797H15.6029V17.4219H13.1836V8.41797Z" fill="#FF0004"/>
<path d="M14.403 22.5673C15.1192 22.5673 15.6997 21.9471 15.6997 21.1821C15.6997 20.4171 15.1192 19.7969 14.403 19.7969C13.6868 19.7969 13.1062 20.4171 13.1062 21.1821C13.1062 21.9471 13.6868 22.5673 14.403 22.5673Z" fill="#FF0004"/>
</svg>
